<?xml version="1.0" encoding="utf-8"?>
<!-- Generator: Adobe Illustrator 28.0.0, SVG Export Plug-In . SVG Version: 6.00 Build 0)  -->
<svg version="1.1" id="Capa_1" xmlns="http://www.w3.org/2000/svg" xmlns:xlink="http://www.w3.org/1999/xlink" x="0px" y="0px"
	 viewBox="0 0 417.5 310.2" style="enable-background:new 0 0 417.5 310.2;" xml:space="preserve">
<style type="text/css">
	.st0{fill:#EDEDED;}
	.st1{fill:#D1D1D1;}
	.st2{fill:#AAAAAA;}
</style>
<g>
	<circle class="st0" cx="300" cy="186.3" r="14.6"/>
	<path class="st1" d="M224.3,182.3c0,0-30.3,32.7-59.7,16c-16.4-9.3-21.3-26.3-16.4-42.5c4.2-13.9,17.9-29,55.7-33.9
		c0,0-24.3,8.2-20.3,38.5c0.8,5.9,3.2,11.6,7.2,16.1C196.6,182.8,206.9,188,224.3,182.3"/>
	<path class="st2" d="M225.5,129.5l40.8,47.4l19.2,24.2h-34c-5.5,0-10.9-1.8-15.1-5.2c-3.8-3.1-7.1-7.9-7.1-15.2V148
		c0-4.5-1.2-11.7-2.8-15.9C226.2,131.2,225.9,130.3,225.5,129.5z"/>
	<g>
		
			<image style="overflow:visible;opacity:0.34;enable-background:new    ;" width="604" height="549" xlink:href="8C8A91F0.png"  transform="matrix(0.24 0 0 0.24 136.6863 68.9836)">
		</image>
		<g>
			<g>
				<path class="st1" d="M267.2,177.9v-43.6c0-1.5-0.1-4.7-0.4-6.2c-1.6-8.9-9.6-36.5-39.2-44.7c-40.2-11.1-62.1,12.6-71,28.1h32.6
					c3.3,0,13.1,0.5,16.2,1.6c5.7,2,13.9,6.2,19.1,14.9c0.4,0.7,0.9,1.5,1.2,2.3c0.2,0.1,0.3,0.3,0.4,0.4c0,0,0,0,0,0l40.8,47.3
					l0.1,0.2C267.2,178,267.2,178,267.2,177.9L267.2,177.9z"/>
			</g>
		</g>
	</g>
</g>
</svg>
